<svg xmlns="http://www.w3.org/2000/svg" width="400" height="300" viewBox="0 0 400 300" shape-rendering="crispEdges">
  <rect width="400" height="300" fill="#87ceeb"/>
  <rect x="0" y="0" width="400" height="150" fill="#a8d8ea"/>
  <rect x="0" y="150" width="400" height="50" fill="#f4e4c1"/>
  <rect x="0" y="200" width="400" height="100" fill="#8b7355"/>
  <rect x="0" y="200" width="400" height="10" fill="#a68b6d"/>
  
  <rect x="0" y="120" width="400" height="30" fill="#ff9999" opacity="0.3"/>
  
  <circle cx="350" cy="40" r="25" fill="#ffd93d"/>
  <circle cx="350" cy="40" r="20" fill="#ffe066"/>
  
  <rect x="330" y="65" width="40" height="5" fill="#fff" opacity="0.6"/>
  <rect x="340" y="75" width="30" height="4" fill="#fff" opacity="0.5"/>
  
  <rect x="0" y="0" width="120" height="200" fill="#f5f5dc"/>
  <rect x="0" y="0" width="120" height="15" fill="#deb887"/>
  <rect x="0" y="0" width="10" height="200" fill="#deb887"/>
  <rect x="110" y="0" width="10" height="200" fill="#deb887"/>
  
  <rect x="20" y="30" width="80" height="40" fill="#87ceeb"/>
  <rect x="20" y="30" width="80" height="40" fill="none" stroke="#8b4513" stroke-width="4"/>
  <rect x="58" y="30" width="4" height="40" fill="#8b4513"/>
  <rect x="20" y="48" width="80" height="4" fill="#8b4513"/>
  
  <rect x="30" y="80" width="60" height="8" fill="#ff6b6b"/>
  <rect x="30" y="80" width="60" height="3" fill="#ff8787"/>
  
  <rect x="35" y="90" width="50" height="15" fill="#fff"/>
  <rect x="38" y="93" width="10" height="3" fill="#ff6b6b"/>
  <rect x="50" y="93" width="12" height="3" fill="#ffd93d"/>
  <rect x="64" y="93" width="8" height="3" fill="#4ade80"/>
  <rect x="38" y="99" width="15" height="3" fill="#5d8aff"/>
  
  <rect x="10" y="120" width="100" height="70" fill="#deb887"/>
  <rect x="10" y="120" width="100" height="8" fill="#d2a679"/>
  <rect x="15" y="130" width="90" height="55" fill="#8b4513"/>
  <rect x="15" y="130" width="90" height="5" fill="#a0522d"/>
  <rect x="15" y="145" width="90" height="5" fill="#a0522d"/>
  <rect x="15" y="160" width="90" height="5" fill="#a0522d"/>
  <rect x="15" y="175" width="90" height="5" fill="#a0522d"/>
  
  <rect x="20" y="135" width="15" height="8" fill="#ff6347"/>
  <rect x="40" y="135" width="12" height="8" fill="#ffd700"/>
  <rect x="57" y="135" width="18" height="8" fill="#90ee90"/>
  <rect x="80" y="135" width="10" height="8" fill="#ffa500"/>
  
  <rect x="22" y="150" width="20" height="10" fill="#228b22"/>
  <rect x="48" y="150" width="15" height="10" fill="#ff69b4"/>
  <rect x="68" y="150" width="18" height="10" fill="#daa520"/>
  
  <rect x="20" y="165" width="25" height="8" fill="#f0e68c"/>
  <rect x="50" y="165" width="20" height="8" fill="#dc143c"/>
  <rect x="75" y="165" width="15" height="8" fill="#4169e1"/>
  
  <rect x="280" y="80" width="110" height="120" fill="#fffaf0"/>
  <rect x="280" y="80" width="110" height="15" fill="#ff6347"/>
  <rect x="280" y="80" width="8" height="200" fill="#8b4513"/>
  <rect x="382" y="80" width="8" height="200" fill="#8b4513"/>
  
  <rect x="295" y="83" width="80" height="10" fill="#fff"/>
  <rect x="310" y="85" width="50" height="6" fill="#ff6347"/>
  
  <rect x="290" y="105" width="90" height="5" fill="#deb887"/>
  <rect x="290" y="135" width="90" height="5" fill="#deb887"/>
  <rect x="290" y="165" width="90" height="5" fill="#deb887"/>
  
  <rect x="295" y="112" width="25" height="18" fill="#ff6347"/>
  <rect x="325" y="112" width="20" height="18" fill="#90ee90"/>
  <rect x="350" y="112" width="25" height="18" fill="#ffd700"/>
  
  <rect x="295" y="142" width="30" height="18" fill="#daa520"/>
  <rect x="330" y="142" width="20" height="18" fill="#ff69b4"/>
  <rect x="355" y="142" width="20" height="18" fill="#4169e1"/>
  
  <rect x="295" y="172" width="40" height="18" fill="#f0e68c"/>
  <rect x="340" y="172" width="35" height="18" fill="#dc143c"/>
  
  <rect x="150" y="130" width="120" height="70" fill="#deb887"/>
  <rect x="150" y="130" width="120" height="10" fill="#d2a679"/>
  <rect x="155" y="145" width="110" height="50" fill="#8b4513"/>
  <rect x="155" y="145" width="110" height="8" fill="#a0522d"/>
  <rect x="155" y="165" width="110" height="8" fill="#a0522d"/>
  <rect x="155" y="185" width="110" height="8" fill="#a0522d"/>
  
  <rect x="165" y="155" width="25" height="8" fill="#228b22"/>
  <rect x="195" y="155" width="30" height="8" fill="#ff6347"/>
  <rect x="230" y="155" width="25" height="8" fill="#ffd700"/>
  
  <rect x="160" y="173" width="35" height="10" fill="#90ee90"/>
  <rect x="200" y="173" width="20" height="10" fill="#ff69b4"/>
  <rect x="225" y="173" width="30" height="10" fill="#ffa500"/>
  
  <rect x="170" y="193" width="25" height="8" fill="#dc143c"/>
  <rect x="200" y="193" width="30" height="8" fill="#4169e1"/>
  <rect x="235" y="193" width="20" height="8" fill="#f0e68c"/>
  
  <rect x="175" y="220" width="20" height="60" fill="#4a3728"/>
  <rect x="177" y="215" width="16" height="10" fill="#f5cda2"/>
  <rect x="172" y="205" width="26" height="15" fill="#2d2d2d"/>
  <rect x="165" y="230" width="15" height="15" fill="#8b0000"/>
  <rect x="190" y="230" width="18" height="15" fill="#8b0000"/>
  
  <rect x="230" y="215" width="25" height="65" fill="#5a4a3a"/>
  <rect x="233" y="210" width="19" height="10" fill="#f5cda2"/>
  <rect x="228" y="200" width="29" height="15" fill="#4a3728"/>
  <rect x="215" y="225" width="20" height="20" fill="#6b8e23"/>
  <rect x="248" y="225" width="18" height="20" fill="#6b8e23"/>
  <rect x="222" y="248" width="40" height="10" fill="#8b4513"/>
  
  <rect x="300" y="200" width="8" height="20" fill="#8b4513"/>
  <rect x="350" y="200" width="8" height="20" fill="#8b4513"/>
  
  <rect x="200" y="260" width="30" height="10" fill="#8b4513"/>
  <rect x="210" y="270" width="10" height="15" fill="#6b4423"/>
  
  <rect x="340" y="210" width="50" height="10" fill="#ffd93d"/>
  <rect x="345" y="222" width="40" height="8" fill="#ffd93d"/>
</svg>