<svg xmlns="http://www.w3.org/2000/svg" width="400" height="300" viewBox="0 0 400 300" shape-rendering="crispEdges">
  <rect width="400" height="300" fill="#1a2530"/>
  <rect x="0" y="0" width="400" height="180" fill="#2a3a4a"/>
  <rect x="0" y="180" width="400" height="120" fill="#3d4a5a"/>
  <rect x="0" y="180" width="400" height="10" fill="#5a6a7a"/>
  <rect x="20" y="20" width="200" height="120" fill="#1a1a2a"/>
  <rect x="20" y="20" width="200" height="8" fill="#3a3a4a"/>
  <rect x="30" y="35" width="180" height="10" fill="#4ade80"/>
  <rect x="30" y="50" width="160" height="8" fill="#5d8aff"/>
  <rect x="30" y="63" width="140" height="8" fill="#ff4d6d"/>
  <rect x="30" y="76" width="170" height="8" fill="#f4d03f"/>
  <rect x="30" y="89" width="150" height="8" fill="#4ade80"/>
  <rect x="30" y="102" width="130" height="8" fill="#5d8aff"/>
  <rect x="30" y="115" width="180" height="8" fill="#ff4d6d"/>
  <rect x="240" y="30" width="140" height="100" fill="#1a1a2a"/>
  <rect x="240" y="30" width="140" height="6" fill="#3a3a4a"/>
  <rect x="250" y="45" width="120" height="70" fill="#2d3a4a"/>
  <rect x="255" y="50" width="50" height="25" fill="#ff4d6d"/>
  <rect x="310" y="50" width="55" height="25" fill="#5d8aff"/>
  <rect x="255" y="80" width="50" height="25" fill="#4ade80"/>
  <rect x="310" y="80" width="55" height="25" fill="#f4d03f"/>
  <rect x="260" y="55" width="30" height="5" fill="#f4f4f4"/>
  <rect x="315" y="55" width="35" height="5" fill="#f4f4f4"/>
  <rect x="260" y="85" width="30" height="5" fill="#f4f4f4"/>
  <rect x="315" y="85" width="35" height="5" fill="#f4f4f4"/>
  <rect x="50" y="150" width="120" height="130" fill="#2d3a4a"/>
  <rect x="50" y="150" width="120" height="10" fill="#3d4a5a"/>
  <rect x="60" y="170" width="100" height="80" fill="#1a1a2a"/>
  <rect x="65" y="180" width="90" height="8" fill="#5d8aff"/>
  <rect x="65" y="195" width="70" height="5" fill="#f4f4f4"/>
  <rect x="65" y="205" width="80" height="5" fill="#f4f4f4"/>
  <rect x="65" y="215" width="60" height="5" fill="#f4f4f4"/>
  <rect x="65" y="225" width="85" height="5" fill="#f4f4f4"/>
  <rect x="100" y="240" width="20" height="30" fill="#3d3d3d"/>
  <rect x="95" y="235" width="30" height="5" fill="#5d5d5d"/>
  <rect x="200" y="155" width="180" height="125" fill="#3d4a5a"/>
  <rect x="200" y="155" width="180" height="10" fill="#5a6a7a"/>
  <rect x="210" y="175" width="160" height="90" fill="#2d3a4a"/>
  <rect x="220" y="185" width="80" height="40" fill="#ff4d6d"/>
  <rect x="310" y="185" width="50" height="40" fill="#f4d03f"/>
  <rect x="225" y="190" width="70" height="5" fill="#f4f4f4"/>
  <rect x="225" y="200" width="60" height="3" fill="#fff"/>
  <rect x="315" y="190" width="40" height="5" fill="#2d3a4a"/>
  <rect x="220" y="235" width="80" height="20" fill="#4ade80"/>
  <rect x="310" y="235" width="50" height="20" fill="#5d8aff"/>
  <rect x="225" y="240" width="70" height="5" fill="#f4f4f4"/>
  <rect x="315" y="240" width="40" height="5" fill="#f4f4f4"/>
  <rect x="20" y="150" width="20" height="130" fill="#5a4a3a"/>
  <rect x="25" y="155" width="10" height="5" fill="#f5cda2"/>
  <rect x="25" y="170" width="10" height="15" fill="#3a4a5a"/>
  <rect x="25" y="200" width="10" height="40" fill="#2d2d3d"/>
</svg>
