<svg xmlns="http://www.w3.org/2000/svg" width="400" height="300" viewBox="0 0 400 300" shape-rendering="crispEdges">
  <rect width="400" height="300" fill="#2d3a4a"/>
  <rect x="0" y="0" width="400" height="60" fill="#1e2a3a"/>
  <rect x="0" y="60" width="400" height="10" fill="#f4d03f"/>
  <rect x="0" y="70" width="400" height="170" fill="#3d4a5a"/>
  <rect x="0" y="240" width="400" height="60" fill="#5a4a3a"/>
  <rect x="20" y="20" width="360" height="15" fill="#f4d03f"/>
  <rect x="30" y="24" width="10" height="7" fill="#2d3a4a"/>
  <rect x="50" y="24" width="10" height="7" fill="#2d3a4a"/>
  <rect x="70" y="24" width="10" height="7" fill="#2d3a4a"/>
  <rect x="90" y="24" width="10" height="7" fill="#2d3a4a"/>
  <rect x="110" y="24" width="10" height="7" fill="#2d3a4a"/>
  <rect x="130" y="24" width="10" height="7" fill="#2d3a4a"/>
  <rect x="150" y="24" width="10" height="7" fill="#2d3a4a"/>
  <rect x="170" y="24" width="10" height="7" fill="#2d3a4a"/>
  <rect x="190" y="24" width="10" height="7" fill="#2d3a4a"/>
  <rect x="210" y="24" width="10" height="7" fill="#2d3a4a"/>
  <rect x="230" y="24" width="10" height="7" fill="#2d3a4a"/>
  <rect x="250" y="24" width="10" height="7" fill="#2d3a4a"/>
  <rect x="270" y="24" width="10" height="7" fill="#2d3a4a"/>
  <rect x="290" y="24" width="10" height="7" fill="#2d3a4a"/>
  <rect x="310" y="24" width="10" height="7" fill="#2d3a4a"/>
  <rect x="330" y="24" width="10" height="7" fill="#2d3a4a"/>
  <rect x="350" y="24" width="10" height="7" fill="#2d3a4a"/>
  <rect x="30" y="90" width="80" height="130" fill="#5a6a7a"/>
  <rect x="30" y="90" width="80" height="10" fill="#7a8a9a"/>
  <rect x="40" y="110" width="60" height="40" fill="#2d3a4a"/>
  <rect x="50" y="120" width="40" height="5" fill="#f4d03f"/>
  <rect x="50" y="130" width="30" height="3" fill="#5d8aff"/>
  <rect x="50" y="138" width="35" height="3" fill="#5d8aff"/>
  <rect x="35" y="160" width="70" height="50" fill="#8b6e5d"/>
  <rect x="35" y="160" width="70" height="5" fill="#a68b6d"/>
  <rect x="140" y="100" width="120" height="120" fill="#5a6a7a"/>
  <rect x="140" y="100" width="120" height="15" fill="#f4d03f"/>
  <rect x="150" y="105" width="100" height="5" fill="#2d3a4a"/>
  <rect x="155" y="125" width="90" height="50" fill="#2d3a4a"/>
  <rect x="165" y="135" width="20" height="20" fill="#5d8aff"/>
  <rect x="195" y="135" width="20" height="20" fill="#4ade80"/>
  <rect x="225" y="135" width="20" height="20" fill="#e67e22"/>
  <rect x="165" y="165" width="80" height="3" fill="#f4f4f4"/>
  <rect x="165" y="172" width="60" height="3" fill="#f4f4f4"/>
  <rect x="150" y="185" width="100" height="30" fill="#8b6e5d"/>
  <rect x="290" y="90" width="80" height="130" fill="#5a6a7a"/>
  <rect x="290" y="90" width="80" height="10" fill="#7a8a9a"/>
  <rect x="300" y="110" width="60" height="40" fill="#2d3a4a"/>
  <rect x="310" y="120" width="40" height="5" fill="#ff4d6d"/>
  <rect x="310" y="130" width="30" height="3" fill="#f4d03f"/>
  <rect x="295" y="160" width="70" height="50" fill="#8b6e5d"/>
  <rect x="295" y="160" width="70" height="5" fill="#a68b6d"/>
  <rect x="10" y="250" width="20" height="40" fill="#2a2a2a"/>
  <rect x="12" y="248" width="16" height="8" fill="#f5cda2"/>
  <rect x="40" y="250" width="15" height="40" fill="#3a3a3a"/>
  <rect x="42" y="248" width="11" height="8" fill="#f5cda2"/>
  <rect x="65" y="250" width="18" height="40" fill="#2a2a3a"/>
  <rect x="67" y="248" width="14" height="8" fill="#f5cda2"/>
  <rect x="100" y="250" width="16" height="40" fill="#1a1a1a"/>
  <rect x="102" y="248" width="12" height="8" fill="#f5cda2"/>
  <rect x="130" y="250" width="20" height="40" fill="#2a2a2a"/>
  <rect x="132" y="248" width="16" height="8" fill="#f5cda2"/>
  <rect x="240" y="250" width="18" height="40" fill="#1a1a2a"/>
  <rect x="242" y="248" width="14" height="8" fill="#f5cda2"/>
  <rect x="270" y="250" width="16" height="40" fill="#2a2a3a"/>
  <rect x="272" y="248" width="12" height="8" fill="#f5cda2"/>
  <rect x="300" y="250" width="20" height="40" fill="#1a1a1a"/>
  <rect x="302" y="248" width="16" height="8" fill="#f5cda2"/>
  <rect x="340" y="250" width="15" height="40" fill="#2a2a2a"/>
  <rect x="342" y="248" width="11" height="8" fill="#f5cda2"/>
  <rect x="370" y="250" width="18" height="40" fill="#3a3a3a"/>
  <rect x="372" y="248" width="14" height="8" fill="#f5cda2"/>
  <rect x="200" y="80" width="8" height="10" fill="#f4d03f"/>
  <rect x="200" y="90" width="8" height="10" fill="#f4d03f" opacity="0.7"/>
  <rect x="200" y="100" width="8" height="10" fill="#f4d03f" opacity="0.4"/>
</svg>
