<svg xmlns="http://www.w3.org/2000/svg" width="400" height="300" viewBox="0 0 400 300" shape-rendering="crispEdges">
  <rect width="400" height="300" fill="#87ceeb"/>
  <rect x="0" y="0" width="400" height="120" fill="#87ceeb"/>
  <rect x="0" y="120" width="400" height="80" fill="#7bc8a0"/>
  <rect x="0" y="200" width="400" height="100" fill="#8b6f47"/>
  <rect x="0" y="200" width="400" height="10" fill="#a68b5d"/>
  <circle cx="350" cy="40" r="20" fill="#f4d03f"/>
  <rect x="100" y="10" width="40" height="10" fill="#f4f4f4" opacity="0.8"/>
  <rect x="110" y="5" width="30" height="10" fill="#f4f4f4" opacity="0.8"/>
  <rect x="200" y="20" width="50" height="12" fill="#f4f4f4" opacity="0.7"/>
  <rect x="210" y="15" width="35" height="10" fill="#f4f4f4" opacity="0.7"/>
  <polygon points="0,140 50,110 100,140 150,105 200,140 250,115 300,140 350,110 400,140 400,200 0,200" fill="#5da06b"/>
  <polygon points="0,140 50,110 100,140 150,105 200,140 250,115 300,140 350,110 400,140 400,200 0,200" fill="none" stroke="#4a8a5a" stroke-width="2"/>
  <rect x="60" y="130" width="30" height="70" fill="#4a7a3a"/>
  <rect x="65" y="120" width="20" height="10" fill="#5d8a4a"/>
  <rect x="70" y="110" width="10" height="10" fill="#6b9a5a"/>
  <rect x="55" y="135" width="10" height="15" fill="#e67e22"/>
  <rect x="75" y="125" width="10" height="15" fill="#e67e22"/>
  <rect x="62" y="145" width="8" height="12" fill="#ff4d6d"/>
  <rect x="80" y="150" width="6" height="10" fill="#ff4d6d"/>
  <rect x="250" y="120" width="40" height="80" fill="#4a7a3a"/>
  <rect x="255" y="108" width="30" height="12" fill="#5d8a4a"/>
  <rect x="260" y="100" width="20" height="10" fill="#6b9a5a"/>
  <rect x="245" y="128" width="12" height="18" fill="#e67e22"/>
  <rect x="275" y="118" width="12" height="18" fill="#e67e22"/>
  <rect x="252" y="140" width="10" height="15" fill="#ff4d6d"/>
  <rect x="278" y="145" width="8" height="12" fill="#ff4d6d"/>
  <rect x="340" y="140" width="30" height="60" fill="#4a7a3a"/>
  <rect x="345" y="130" width="20" height="10" fill="#5d8a4a"/>
  <rect x="335" y="148" width="10" height="15" fill="#e67e22"/>
  <rect x="355" y="138" width="10" height="15" fill="#e67e22"/>
  <rect x="342" y="155" width="8" height="12" fill="#ff4d6d"/>
  <rect x="358" y="160" width="6" height="10" fill="#ff4d6d"/>
  <rect x="10" y="210" width="50" height="30" fill="#a68b5d"/>
  <rect x="10" y="210" width="50" height="5" fill="#c4a87d"/>
  <rect x="15" y="215" width="15" height="20" fill="#e67e22"/>
  <rect x="32" y="215" width="15" height="20" fill="#f4d03f"/>
  <rect x="20" y="205" width="10" height="5" fill="#8b6f47"/>
  <rect x="40" y="205" width="10" height="5" fill="#8b6f47"/>
  <rect x="120" y="215" width="60" height="25" fill="#a68b5d"/>
  <rect x="120" y="215" width="60" height="5" fill="#c4a87d"/>
  <rect x="125" y="220" width="15" height="15" fill="#ff4d6d"/>
  <rect x="145" y="220" width="15" height="15" fill="#4ade80"/>
  <rect x="165" y="220" width="10" height="15" fill="#e67e22"/>
  <rect x="280" y="220" width="80" height="20" fill="#8b6f47"/>
  <rect x="280" y="220" width="80" height="3" fill="#a68b5d"/>
  <rect x="285" y="223" width="70" height="14" fill="#c4a87d"/>
  <rect x="290" y="226" width="20" height="8" fill="#f4d03f"/>
  <rect x="320" y="226" width="25" height="8" fill="#e67e22"/>
  <rect x="350" y="226" width="15" height="8" fill="#ff4d6d"/>
  <rect x="180" y="240" width="40" height="10" fill="#5d8a4a"/>
  <rect x="190" y="250" width="20" height="20" fill="#8b6f47"/>
  <rect x="195" y="255" width="10" height="10" fill="#f5cda2"/>
  <rect x="190" y="258" width="5" height="8" fill="#4a3a2a"/>
  <rect x="205" y="258" width="5" height="8" fill="#4a3a2a"/>
</svg>
