<svg xmlns="http://www.w3.org/2000/svg" width="400" height="300" viewBox="0 0 400 300" shape-rendering="crispEdges">
  <rect width="400" height="300" fill="#5a4a3a"/>
  <rect x="0" y="0" width="400" height="200" fill="#6b5a4a"/>
  <rect x="0" y="200" width="400" height="100" fill="#3d3228"/>
  <rect x="0" y="200" width="400" height="10" fill="#4a3d2d"/>
  <rect x="20" y="20" width="120" height="160" fill="#8b6e5d"/>
  <rect x="20" y="20" width="120" height="10" fill="#a68b6d"/>
  <rect x="20" y="20" width="10" height="160" fill="#a68b6d"/>
  <rect x="130" y="20" width="10" height="160" fill="#a68b6d"/>
  <rect x="30" y="40" width="100" height="10" fill="#a68b6d"/>
  <rect x="30" y="70" width="100" height="10" fill="#a68b6d"/>
  <rect x="30" y="100" width="100" height="10" fill="#a68b6d"/>
  <rect x="30" y="130" width="100" height="10" fill="#a68b6d"/>
  <rect x="200" y="120" width="180" height="80" fill="#5a6a7a"/>
  <rect x="200" y="120" width="180" height="10" fill="#7a8a9a"/>
  <rect x="210" y="140" width="160" height="10" fill="#3d4a5a"/>
  <rect x="210" y="155" width="160" height="10" fill="#3d4a5a"/>
  <rect x="210" y="170" width="160" height="10" fill="#3d4a5a"/>
  <rect x="215" y="143" width="20" height="4" fill="#4ade80"/>
  <rect x="240" y="143" width="15" height="4" fill="#ff4d6d"/>
  <rect x="260" y="143" width="25" height="4" fill="#5d8aff"/>
  <rect x="290" y="143" width="10" height="4" fill="#f4d03f"/>
  <rect x="215" y="158" width="30" height="4" fill="#f4f4f4"/>
  <rect x="250" y="158" width="20" height="4" fill="#e67e22"/>
  <rect x="275" y="158" width="15" height="4" fill="#4ade80"/>
  <rect x="215" y="173" width="25" height="4" fill="#5d8aff"/>
  <rect x="245" y="173" width="35" height="4" fill="#ff4d6d"/>
  <rect x="285" y="173" width="20" height="4" fill="#f4d03f"/>
  <rect x="210" y="200" width="160" height="20" fill="#3d2e24"/>
  <rect x="220" y="200" width="10" height="20" fill="#2d1e14"/>
  <rect x="250" y="200" width="10" height="20" fill="#2d1e14"/>
  <rect x="280" y="200" width="10" height="20" fill="#2d1e14"/>
  <rect x="310" y="200" width="10" height="20" fill="#2d1e14"/>
  <rect x="340" y="200" width="10" height="20" fill="#2d1e14"/>
  <rect x="200" y="50" width="80" height="60" fill="#4a5a6a"/>
  <rect x="200" y="50" width="80" height="5" fill="#6a7a8a"/>
  <rect x="210" y="60" width="60" height="40" fill="#f4f4f4"/>
  <rect x="215" y="65" width="50" height="5" fill="#3d4a5a"/>
  <rect x="215" y="75" width="40" height="3" fill="#5d8aff"/>
  <rect x="215" y="82" width="45" height="3" fill="#4ade80"/>
  <rect x="215" y="89" width="30" height="3" fill="#f4d03f"/>
  <rect x="300" y="40" width="80" height="70" fill="#3d4a5a"/>
  <rect x="300" y="40" width="80" height="5" fill="#5a6a7a"/>
  <rect x="310" y="50" width="60" height="5" fill="#4ade80"/>
  <rect x="310" y="60" width="60" height="5" fill="#5d8aff"/>
  <rect x="310" y="70" width="60" height="5" fill="#ff4d6d"/>
  <rect x="310" y="80" width="60" height="5" fill="#f4d03f"/>
  <rect x="310" y="90" width="60" height="5" fill="#4ade80"/>
  <rect x="160" y="30" width="30" height="80" fill="#3d2e24"/>
  <rect x="160" y="30" width="30" height="5" fill="#5d4a3a"/>
  <rect x="165" y="40" width="5" height="60" fill="#8b6e5d"/>
  <rect x="170" y="40" width="15" height="60" fill="#6b5a4a"/>
  <rect x="172" y="45" width="11" height="3" fill="#e67e22"/>
  <rect x="172" y="55" width="11" height="3" fill="#f4d03f"/>
  <rect x="172" y="65" width="11" height="3" fill="#5d8aff"/>
  <rect x="172" y="75" width="11" height="3" fill="#4ade80"/>
  <rect x="50" y="210" width="20" height="20" fill="#e67e22"/>
  <rect x="52" y="205" width="16" height="5" fill="#f4d03f"/>
  <rect x="55" y="215" width="10" height="10" fill="#3d2e24"/>
  <rect x="80" y="220" width="30" height="15" fill="#5d8aff"/>
  <rect x="85" y="223" width="20" height="8" fill="#f4f4f4"/>
  <rect x="120" y="215" width="25" height="25" fill="#8b6e5d"/>
  <rect x="125" y="220" width="15" height="10" fill="#a68b6d"/>
</svg>
