<svg xmlns="http://www.w3.org/2000/svg" width="400" height="300" viewBox="0 0 400 300" shape-rendering="crispEdges">
  <rect width="400" height="300" fill="#3d4a5a"/>
  <rect x="0" y="0" width="400" height="200" fill="#2d3a4a"/>
  <rect x="0" y="200" width="400" height="100" fill="#4a5a6a"/>
  <rect x="0" y="200" width="400" height="10" fill="#5a6a7a"/>
  
  <rect x="0" y="0" width="400" height="10" fill="#1a2530"/>
  
  <rect x="20" y="20" width="360" height="160" fill="#5a7a5a"/>
  <rect x="20" y="20" width="360" height="8" fill="#6b8a6b"/>
  <rect x="20" y="20" width="8" height="160" fill="#6b8a6b"/>
  <rect x="372" y="20" width="8" height="160" fill="#6b8a6b"/>
  <rect x="20" y="172" width="360" height="8" fill="#6b8a6b"/>
  
  <rect x="40" y="40" width="100" height="60" fill="#6b9a6b"/>
  <rect x="60" y="50" width="50" height="30" fill="#7aaa7a"/>
  <rect x="45" y="70" width="30" height="20" fill="#7aaa7a"/>
  
  <rect x="160" y="35" width="80" height="50" fill="#6b9a6b"/>
  <rect x="170" y="45" width="60" height="30" fill="#7aaa7a"/>
  <rect x="180" y="38" width="40" height="10" fill="#7aaa7a"/>
  
  <rect x="270" y="50" width="100" height="70" fill="#6b9a6b"/>
  <rect x="290" y="60" width="60" height="40" fill="#7aaa7a"/>
  <rect x="280" y="80" width="40" height="30" fill="#7aaa7a"/>
  
  <rect x="80" y="110" width="70" height="50" fill="#6b9a6b"/>
  <rect x="90" y="120" width="50" height="30" fill="#7aaa7a"/>
  
  <rect x="180" y="100" width="60" height="60" fill="#6b9a6b"/>
  <rect x="190" y="110" width="40" height="40" fill="#7aaa7a"/>
  
  <rect x="280" y="130" width="50" height="40" fill="#6b9a6b"/>
  <rect x="290" y="140" width="30" height="20" fill="#7aaa7a"/>
  
  <rect x="100" y="55" width="6" height="6" fill="#ff4d6d"/>
  <rect x="102" y="50" width="2" height="5" fill="#ff4d6d"/>
  
  <rect x="190" y="55" width="6" height="6" fill="#f4d03f"/>
  <rect x="192" y="50" width="2" height="5" fill="#f4d03f"/>
  
  <rect x="310" y="75" width="6" height="6" fill="#5d8aff"/>
  <rect x="312" y="70" width="2" height="5" fill="#5d8aff"/>
  
  <rect x="120" y="130" width="6" height="6" fill="#4ade80"/>
  <rect x="122" y="125" width="2" height="5" fill="#4ade80"/>
  
  <rect x="210" y="125" width="6" height="6" fill="#e67e22"/>
  <rect x="212" y="120" width="2" height="5" fill="#e67e22"/>
  
  <rect x="300" y="145" width="6" height="6" fill="#9b59b6"/>
  <rect x="302" y="140" width="2" height="5" fill="#9b59b6"/>
  
  <rect x="70" y="90" width="6" height="6" fill="#1abc9c"/>
  <rect x="72" y="85" width="2" height="5" fill="#1abc9c"/>
  
  <rect x="0" y="0" width="400" height="200" fill="#f4e8c1" opacity="0.05"/>
  <rect x="300" y="0" width="10" height="200" fill="#f4e8c1" opacity="0.1"/>
  <rect x="320" y="0" width="5" height="200" fill="#f4e8c1" opacity="0.08"/>
  <rect x="340" y="0" width="15" height="200" fill="#f4e8c1" opacity="0.12"/>
  <rect x="370" y="0" width="8" height="200" fill="#f4e8c1" opacity="0.06"/>
  
  <rect x="50" y="220" width="120" height="70" fill="#8b6e5d"/>
  <rect x="50" y="220" width="120" height="8" fill="#a68b6d"/>
  <rect x="60" y="235" width="100" height="45" fill="#6b5a4a"/>
  
  <circle cx="110" cy="255" r="20" fill="#5d8aff"/>
  <circle cx="110" cy="255" r="16" fill="#6b9a6b"/>
  <rect x="100" y="245" width="20" height="5" fill="#f4f4f4" opacity="0.5"/>
  <rect x="95" y="255" width="30" height="3" fill="#f4f4f4" opacity="0.3"/>
  
  <rect x="70" y="240" width="8" height="25" fill="#c0392b"/>
  <rect x="72" y="242" width="4" height="20" fill="#e74c3c"/>
  <rect x="68" y="235" width="12" height="5" fill="#8b6e5d"/>
  
  <rect x="135" y="240" width="8" height="25" fill="#f4d03f"/>
  <rect x="137" y="242" width="4" height="20" fill="#f4e8c1"/>
  <rect x="133" y="235" width="12" height="5" fill="#8b6e5d"/>
  
  <rect x="230" y="215" width="140" height="75" fill="#3d4a5a"/>
  <rect x="230" y="215" width="140" height="8" fill="#5a6a7a"/>
  <rect x="240" y="230" width="120" height="50" fill="#1a2530"/>
  
  <rect x="250" y="238" width="40" height="6" fill="#4ade80"/>
  <rect x="300" y="238" width="50" height="6" fill="#5d8aff"/>
  <rect x="250" y="250" width="60" height="5" fill="#f4f4f4"/>
  <rect x="320" y="250" width="30" height="5" fill="#f4d03f"/>
  <rect x="250" y="262" width="45" height="5" fill="#f4f4f4"/>
  <rect x="305" y="262" width="40" height="5" fill="#ff4d6d"/>
  
  <rect x="200" y="220" width="20" height="60" fill="#8b6e5d"/>
  <rect x="203" y="215" width="14" height="5" fill="#a68b6d"/>
  
  <rect x="310" y="285" width="15" height="10" fill="#2d3a4a"/>
  <rect x="330" y="285" width="15" height="10" fill="#2d3a4a"/>
  
  <rect x="30" y="195" width="10" height="20" fill="#3d4a5a"/>
  <rect x="360" y="195" width="10" height="20" fill="#3d4a5a"/>
</svg>