<svg xmlns="http://www.w3.org/2000/svg" width="400" height="300" viewBox="0 0 400 300" shape-rendering="crispEdges">
  <rect width="400" height="300" fill="#2d3440"/>
  <rect x="0" y="0" width="400" height="200" fill="#3a4150"/>
  <rect x="0" y="200" width="400" height="100" fill="#2a2d35"/>
  <rect x="0" y="200" width="400" height="10" fill="#3a3d45"/>
  
  <rect x="0" y="0" width="400" height="10" fill="#2d3440"/>
  
  <rect x="20" y="20" width="360" height="160" fill="#4a5568"/>
  <rect x="20" y="20" width="360" height="8" fill="#5a6578"/>
  <rect x="20" y="20" width="8" height="160" fill="#5a6578"/>
  <rect x="372" y="20" width="8" height="160" fill="#5a6578"/>
  <rect x="20" y="172" width="360" height="8" fill="#5a6578"/>
  
  <rect x="40" y="30" width="320" height="140" fill="#5a6a7a" opacity="0.3"/>
  <rect x="60" y="40" width="20" height="120" fill="#4a5568"/>
  <rect x="320" y="40" width="20" height="120" fill="#4a5568"/>
  
  <rect x="70" y="50" width="20" height="5" fill="#8a9ab0"/>
  <rect x="310" y="50" width="20" height="5" fill="#8a9ab0"/>
  <rect x="70" y="70" width="15" height="5" fill="#8a9ab0"/>
  <rect x="315" y="70" width="15" height="5" fill="#8a9ab0"/>
  <rect x="70" y="90" width="18" height="5" fill="#8a9ab0"/>
  <rect x="312" y="90" width="18" height="5" fill="#8a9ab0"/>
  <rect x="70" y="110" width="12" height="5" fill="#8a9ab0"/>
  <rect x="318" y="110" width="12" height="5" fill="#8a9ab0"/>
  <rect x="70" y="130" width="16" height="5" fill="#8a9ab0"/>
  <rect x="314" y="130" width="16" height="5" fill="#8a9ab0"/>
  <rect x="70" y="150" width="14" height="5" fill="#8a9ab0"/>
  <rect x="316" y="150" width="14" height="5" fill="#8a9ab0"/>
  
  <rect x="100" y="60" width="30" height="8" fill="#f4d03f" opacity="0.2"/>
  <rect x="270" y="100" width="25" height="8" fill="#f4d03f" opacity="0.15"/>
  <rect x="150" y="120" width="20" height="8" fill="#f4d03f" opacity="0.1"/>
  
  <rect x="50" y="195" width="8" height="20" fill="#2d3440"/>
  <rect x="342" y="195" width="8" height="20" fill="#2d3440"/>
  
  <rect x="30" y="220" width="80" height="60" fill="#3d4a5a"/>
  <rect x="30" y="220" width="80" height="8" fill="#4d5a6a"/>
  <rect x="35" y="235" width="70" height="35" fill="#2d3a4a"/>
  <rect x="40" y="240" width="30" height="5" fill="#5d8aff" opacity="0.4"/>
  <rect x="40" y="250" width="50" height="4" fill="#4a5568"/>
  <rect x="40" y="260" width="40" height="4" fill="#4a5568"/>
  
  <rect x="65" y="215" width="15" height="18" fill="#8b6e5d"/>
  <rect x="68" y="210" width="9" height="5" fill="#a68b6d"/>
  <rect x="70" y="212" width="5" height="2" fill="#6b4a3a"/>
  
  <rect x="290" y="220" width="80" height="60" fill="#3d4a5a"/>
  <rect x="290" y="220" width="80" height="8" fill="#4d5a6a"/>
  <rect x="295" y="235" width="70" height="35" fill="#2d3a4a"/>
  <rect x="300" y="240" width="40" height="5" fill="#5d8aff" opacity="0.3"/>
  <rect x="300" y="250" width="30" height="4" fill="#4a5568"/>
  <rect x="300" y="260" width="50" height="4" fill="#4a5568"/>
  
  <rect x="150" y="210" width="100" height="70" fill="#2d3440"/>
  <rect x="150" y="210" width="100" height="5" fill="#3a4150"/>
  <rect x="155" y="220" width="90" height="50" fill="#1a1d25"/>
  <rect x="160" y="225" width="80" height="5" fill="#6b7a8a"/>
  <rect x="165" y="235" width="70" height="4" fill="#ff6b6b" opacity="0.7"/>
  <rect x="165" y="245" width="60" height="4" fill="#8b9aa8"/>
  <rect x="165" y="255" width="65" height="4" fill="#8b9aa8"/>
  <rect x="165" y="265" width="50" height="4" fill="#ff6b6b" opacity="0.5"/>
  
  <rect x="175" y="233" width="50" height="2" fill="#ff4d4d"/>
  <rect x="170" y="243" width="60" height="2" fill="#ff4d4d"/>
  
  <rect x="195" y="280" width="10" height="15" fill="#2a2d35"/>
  <rect x="190" y="275" width="20" height="5" fill="#3a3d45"/>
  
  <rect x="340" y="50" width="40" height="60" fill="#4a3a3a"/>
  <rect x="340" y="50" width="40" height="5" fill="#5a4a4a"/>
  <rect x="345" y="60" width="30" height="40" fill="#3a2a2a"/>
  <rect x="350" y="65" width="20" height="3" fill="#ff6b6b"/>
  <rect x="350" y="72" width="20" height="3" fill="#ff6b6b"/>
  <rect x="350" y="79" width="20" height="3" fill="#ff6b6b"/>
  <rect x="350" y="86" width="20" height="3" fill="#ff6b6b"/>
  <rect x="350" y="93" width="15" height="3" fill="#ff6b6b"/>
  
  <rect x="50" y="50" width="50" height="40" fill="#f4d03f" opacity="0.08"/>
  <rect x="300" y="50" width="60" height="50" fill="#f4d03f" opacity="0.06"/>
  
  <rect x="120" y="180" width="10" height="20" fill="#5a6578" opacity="0.5"/>
  <rect x="260" y="175" width="8" height="25" fill="#5a6578" opacity="0.4"/>
  <rect x="200" y="185" width="12" height="15" fill="#5a6578" opacity="0.3"/>
</svg>