<svg xmlns="http://www.w3.org/2000/svg" width="400" height="300" viewBox="0 0 400 300" shape-rendering="crispEdges">
  <rect width="400" height="300" fill="#2d3a4a"/>
  <rect x="0" y="0" width="400" height="200" fill="#3d4a5a"/>
  <rect x="0" y="200" width="400" height="100" fill="#5a4a3a"/>
  <rect x="0" y="200" width="400" height="10" fill="#6b5a4a"/>
  <rect x="20" y="30" width="20" height="20" fill="#f4d03f" opacity="0.8"/>
  <rect x="50" y="20" width="20" height="25" fill="#5d8aff" opacity="0.7"/>
  <rect x="80" y="35" width="25" height="15" fill="#ff4d6d" opacity="0.8"/>
  <rect x="20" y="60" width="30" height="20" fill="#4ade80" opacity="0.6"/>
  <rect x="60" y="55" width="20" height="20" fill="#e67e22" opacity="0.7"/>
  <rect x="100" y="25" width="25" height="20" fill="#f4d03f" opacity="0.7"/>
  <rect x="140" y="40" width="20" height="20" fill="#5d8aff" opacity="0.6"/>
  <rect x="30" y="130" width="150" height="90" fill="#1a1a1a"/>
  <rect x="30" y="130" width="150" height="5" fill="#3a3a3a"/>
  <rect x="40" y="140" width="130" height="70" fill="#2d3a4a"/>
  <rect x="45" y="145" width="40" height="3" fill="#4ade80"/>
  <rect x="45" y="152" width="60" height="3" fill="#5d8aff"/>
  <rect x="45" y="159" width="30" height="3" fill="#f4d03f"/>
  <rect x="45" y="166" width="70" height="3" fill="#ff4d6d"/>
  <rect x="45" y="173" width="50" height="3" fill="#4ade80"/>
  <rect x="45" y="180" width="45" height="3" fill="#5d8aff"/>
  <rect x="45" y="187" width="55" height="3" fill="#f4f4f4"/>
  <rect x="100" y="145" width="60" height="5" fill="#3d4a5a"/>
  <rect x="100" y="155" width="60" height="5" fill="#3d4a5a"/>
  <rect x="100" y="165" width="60" height="5" fill="#3d4a5a"/>
  <rect x="95" y="220" width="20" height="40" fill="#2a2a2a"/>
  <rect x="85" y="215" width="40" height="10" fill="#3a3a3a"/>
  <rect x="210" y="80" width="70" height="140" fill="#1a1a1a"/>
  <rect x="213" y="85" width="64" height="120" fill="#2d3a4a"/>
  <rect x="220" y="95" width="50" height="20" fill="#5d8aff"/>
  <rect x="225" y="100" width="15" height="10" fill="#f4f4f4"/>
  <rect x="245" y="100" width="20" height="3" fill="#f4f4f4"/>
  <rect x="245" y="105" width="15" height="3" fill="#f4f4f4"/>
  <rect x="220" y="125" width="50" height="15" fill="#4ade80"/>
  <rect x="225" y="130" width="30" height="3" fill="#f4f4f4"/>
  <rect x="220" y="148" width="50" height="15" fill="#e67e22"/>
  <rect x="225" y="153" width="40" height="3" fill="#f4f4f4"/>
  <rect x="220" y="171" width="50" height="15" fill="#ff4d6d"/>
  <rect x="225" y="176" width="25" height="3" fill="#f4f4f4"/>
  <rect x="240" y="207" width="15" height="10" fill="#3a3a3a"/>
  <rect x="295" y="100" width="60" height="120" fill="#1a1a1a"/>
  <rect x="298" y="105" width="54" height="100" fill="#2d3a4a"/>
  <rect x="305" y="115" width="40" height="20" fill="#f4d03f"/>
  <rect x="310" y="120" width="30" height="5" fill="#2d3a4a"/>
  <rect x="310" y="130" width="20" height="3" fill="#f4f4f4"/>
  <rect x="305" y="145" width="40" height="15" fill="#5d8aff"/>
  <rect x="310" y="150" width="30" height="3" fill="#f4f4f4"/>
  <rect x="305" y="170" width="40" height="15" fill="#4ade80"/>
  <rect x="310" y="175" width="25" height="3" fill="#f4f4f4"/>
  <rect x="320" y="207" width="10" height="8" fill="#3a3a3a"/>
  <rect x="200" y="200" width="40" height="10" fill="#e67e22"/>
  <rect x="202" y="195" width="36" height="5" fill="#f4d03f"/>
  <rect x="250" y="210" width="30" height="15" fill="#5d8aff"/>
  <rect x="255" y="212" width="20" height="8" fill="#f4f4f4"/>
  <rect x="350" y="40" width="30" height="20" fill="#f4d03f" opacity="0.7"/>
  <rect x="355" y="45" width="20" height="10" fill="#2d3a4a"/>
  <rect x="350" y="70" width="30" height="20" fill="#5d8aff" opacity="0.6"/>
  <rect x="355" y="75" width="20" height="10" fill="#f4f4f4"/>
</svg>
