<svg xmlns="http://www.w3.org/2000/svg" width="400" height="300" viewBox="0 0 400 300" shape-rendering="crispEdges">
  <rect width="400" height="300" fill="#ff8c42"/>
  <rect x="0" y="0" width="400" height="140" fill="#ff6b35"/>
  <rect x="0" y="140" width="400" height="160" fill="#5a6a7a"/>
  <rect x="0" y="140" width="400" height="10" fill="#7a8a9a"/>
  <circle cx="350" cy="60" r="35" fill="#ffd93d"/>
  <circle cx="350" cy="60" r="35" fill="#ff8c42" opacity="0.3"/>
  <rect x="50" y="80" width="80" height="60" fill="#ffb366" opacity="0.6"/>
  <rect x="180" y="90" width="100" height="50" fill="#ffcc80" opacity="0.5"/>
  <rect x="300" y="100" width="60" height="40" fill="#ffb366" opacity="0.4"/>
  <polygon points="0,140 400,140 400,180 0,180" fill="#4a90a4"/>
  <rect x="0" y="180" width="400" height="120" fill="#3a7a8a"/>
  <rect x="10" y="185" width="20" height="3" fill="#5da0b4"/>
  <rect x="50" y="190" width="30" height="3" fill="#5da0b4"/>
  <rect x="100" y="188" width="25" height="3" fill="#5da0b4"/>
  <rect x="150" y="195" width="40" height="3" fill="#5da0b4"/>
  <rect x="210" y="185" width="30" height="3" fill="#5da0b4"/>
  <rect x="270" y="192" width="35" height="3" fill="#5da0b4"/>
  <rect x="330" y="188" width="25" height="3" fill="#5da0b4"/>
  <rect x="0" y="200" width="400" height="100" fill="#5a6a7a"/>
  <rect x="0" y="200" width="400" height="5" fill="#7a8a9a"/>
  <rect x="30" y="140" width="40" height="60" fill="#e67e22"/>
  <rect x="30" y="140" width="40" height="5" fill="#f4a030"/>
  <rect x="30" y="160" width="40" height="3" fill="#c45d1a"/>
  <rect x="35" y="145" width="30" height="10" fill="#ffd93d"/>
  <rect x="35" y="165" width="30" height="5" fill="#ffd93d"/>
  <rect x="80" y="120" width="50" height="80" fill="#3a7a8a"/>
  <rect x="80" y="120" width="50" height="5" fill="#5da0b4"/>
  <rect x="85" y="130" width="40" height="5" fill="#f4f4f4"/>
  <rect x="85" y="140" width="40" height="5" fill="#ff4d6d"/>
  <rect x="85" y="150" width="40" height="5" fill="#4ade80"/>
  <rect x="85" y="160" width="40" height="5" fill="#5d8aff"/>
  <rect x="85" y="170" width="40" height="5" fill="#f4d03f"/>
  <rect x="90" y="185" width="30" height="10" fill="#2d3a4a"/>
  <rect x="140" y="100" width="60" height="100" fill="#e67e22"/>
  <rect x="140" y="100" width="60" height="5" fill="#f4a030"/>
  <rect x="140" y="130" width="60" height="3" fill="#c45d1a"/>
  <rect x="140" y="160" width="60" height="3" fill="#c45d1a"/>
  <rect x="145" y="108" width="20" height="15" fill="#ffd93d"/>
  <rect x="170" y="108" width="25" height="15" fill="#5d8aff"/>
  <rect x="145" y="138" width="25" height="15" fill="#4ade80"/>
  <rect x="175" y="138" width="20" height="15" fill="#ff4d6d"/>
  <rect x="145" y="168" width="30" height="15" fill="#5d8aff"/>
  <rect x="180" y="168" width="15" height="15" fill="#f4d03f"/>
  <rect x="145" y="190" width="50" height="10" fill="#2d3a4a"/>
  <rect x="220" y="115" width="55" height="85" fill="#3a7a8a"/>
  <rect x="220" y="115" width="55" height="5" fill="#5da0b4"/>
  <rect x="225" y="125" width="45" height="5" fill="#ff4d6d"/>
  <rect x="225" y="135" width="45" height="5" fill="#f4d03f"/>
  <rect x="225" y="145" width="45" height="5" fill="#4ade80"/>
  <rect x="225" y="155" width="45" height="5" fill="#5d8aff"/>
  <rect x="225" y="165" width="45" height="5" fill="#e67e22"/>
  <rect x="225" y="175" width="45" height="5" fill="#ff4d6d"/>
  <rect x="228" y="190" width="40" height="10" fill="#2d3a4a"/>
  <rect x="290" y="130" width="45" height="70" fill="#e67e22"/>
  <rect x="290" y="130" width="45" height="5" fill="#f4a030"/>
  <rect x="290" y="155" width="45" height="3" fill="#c45d1a"/>
  <rect x="290" y="175" width="45" height="3" fill="#c45d1a"/>
  <rect x="295" y="138" width="35" height="12" fill="#ffd93d"/>
  <rect x="295" y="160" width="35" height="10" fill="#5d8aff"/>
  <rect x="295" y="180" width="35" height="10" fill="#4ade80"/>
  <rect x="350" y="145" width="40" height="55" fill="#3a7a8a"/>
  <rect x="350" y="145" width="40" height="5" fill="#5da0b4"/>
  <rect x="355" y="155" width="30" height="5" fill="#f4d03f"/>
  <rect x="355" y="165" width="30" height="5" fill="#ff4d6d"/>
  <rect x="355" y="175" width="30" height="5" fill="#4ade80"/>
  <rect x="358" y="190" width="25" height="8" fill="#2d3a4a"/>
  <rect x="30" y="220" width="60" height="50" fill="#7a5a3a"/>
  <rect x="30" y="220" width="60" height="5" fill="#9a7a5a"/>
  <rect x="40" y="230" width="10" height="35" fill="#e67e22"/>
  <rect x="55" y="230" width="10" height="35" fill="#3a7a8a"/>
  <rect x="70" y="230" width="10" height="35" fill="#5d8aff"/>
  <rect x="120" y="230" width="50" height="40" fill="#5a4a3a"/>
  <rect x="120" y="230" width="50" height="5" fill="#7a6a5a"/>
  <rect x="125" y="238" width="40" height="25" fill="#2d3a4a"/>
  <rect x="130" y="242" width="30" height="5" fill="#f4d03f"/>
  <rect x="130" y="250" width="25" height="3" fill="#fff"/>
  <rect x="200" y="225" width="70" height="45" fill="#7a5a3a"/>
  <rect x="200" y="225" width="70" height="5" fill="#9a7a5a"/>
  <rect x="205" y="235" width="25" height="30" fill="#ff4d6d"/>
  <rect x="235" y="235" width="30" height="30" fill="#4ade80"/>
  <rect x="290" y="235" width="60" height="35" fill="#5a4a3a"/>
  <rect x="290" y="235" width="60" height="5" fill="#7a6a5a"/>
  <rect x="295" y="243" width="50" height="20" fill="#5d8aff"/>
  <rect x="300" y="247" width="40" height="5" fill="#f4f4f4"/>
  <rect x="360" y="240" width="35" height="30" fill="#7a5a3a"/>
  <rect x="360" y="240" width="35" height="5" fill="#9a7a5a"/>
  <rect x="365" y="248" width="25" height="15" fill="#e67e22"/>
  <rect x="170" y="50" width="40" height="60" fill="#5a6a7a"/>
  <rect x="170" y="50" width="40" height="5" fill="#7a8a9a"/>
  <rect x="180" y="60" width="20" height="45" fill="#4a5a6a"/>
  <rect x="165" y="110" width="50" height="10" fill="#5a6a7a"/>
  <polygon points="190,30 175,60 205,60" fill="#f4a030"/>
  <polygon points="190,25 170,60 210,60" fill="#ffd93d"/>
  <rect x="185" y="60" width="10" height="50" fill="#3d3d3d"/>
  <rect x="180" y="105" width="20" height="10" fill="#3d3d3d"/>
</svg>
