<svg xmlns="http://www.w3.org/2000/svg" width="400" height="300" viewBox="0 0 400 300" shape-rendering="crispEdges">
  <rect width="400" height="300" fill="#1a1a2a"/>
  <rect x="0" y="0" width="400" height="200" fill="#1a1a2a"/>
  <rect x="0" y="200" width="400" height="100" fill="#2d2d3a"/>
  <rect x="0" y="200" width="400" height="10" fill="#3d3d4a"/>
  
  <rect x="50" y="30" width="300" height="100" fill="#2d3a4a"/>
  <rect x="50" y="30" width="300" height="8" fill="#3d4a5a"/>
  <rect x="50" y="30" width="8" height="100" fill="#3d4a5a"/>
  <rect x="342" y="30" width="8" height="100" fill="#3d4a5a"/>
  <rect x="50" y="122" width="300" height="8" fill="#3d4a5a"/>
  
  <rect x="150" y="50" width="100" height="40" fill="#ff4d6d"/>
  <rect x="155" y="55" width="90" height="30" fill="#e74c3c"/>
  <rect x="170" y="62" width="60" height="15" fill="#fff" opacity="0.3"/>
  
  <rect x="155" y="52" width="15" height="10" fill="#fff" opacity="0.7" transform="rotate(-15 162 57)"/>
  <rect x="150" y="70" width="20" height="12" fill="#fff" opacity="0.5" transform="rotate(-10 160 76)"/>
  <rect x="210" y="60" width="18" height="10" fill="#fff" opacity="0.6" transform="rotate(8 219 65)"/>
  <rect x="220" y="75" width="15" height="8" fill="#fff" opacity="0.4" transform="rotate(12 227 79)"/>
  
  <rect x="140" y="150" width="120" height="50" fill="#4a5568"/>
  <rect x="140" y="150" width="120" height="6" fill="#5a6a7a"/>
  <rect x="150" y="162" width="100" height="30" fill="#2d3748"/>
  
  <rect x="155" y="167" width="40" height="5" fill="#ff6b6b"/>
  <rect x="155" y="177" width="60" height="4" fill="#8b9aa8"/>
  <rect x="155" y="185" width="50" height="4" fill="#8b9aa8"/>
  
  <rect x="195" y="195" width="10" height="15" fill="#2d2d3a"/>
  
  <rect x="120" y="155" width="15" height="40" fill="#2a2a2a"/>
  <rect x="118" y="152" width="19" height="5" fill="#3a3a3a"/>
  <rect x="122" y="150" width="11" height="3" fill="#4a4a4a"/>
  
  <rect x="265" y="155" width="15" height="40" fill="#2a2a2a"/>
  <rect x="263" y="152" width="19" height="5" fill="#3a3a3a"/>
  <rect x="267" y="150" width="11" height="3" fill="#4a4a4a"/>
  
  <rect x="100" y="160" width="12" height="35" fill="#2a2a2a"/>
  <rect x="98" y="157" width="16" height="5" fill="#3a3a3a"/>
  
  <rect x="288" y="160" width="12" height="35" fill="#2a2a2a"/>
  <rect x="286" y="157" width="16" height="5" fill="#3a3a3a"/>
  
  <rect x="20" y="220" width="20" height="60" fill="#1a1a2a"/>
  <rect x="22" y="218" width="16" height="10" fill="#f5cda2"/>
  <rect x="25" y="208" width="10" height="10" fill="#2a2a3a"/>
  
  <rect x="50" y="220" width="18" height="60" fill="#252535"/>
  <rect x="52" y="218" width="14" height="10" fill="#f5cda2"/>
  <rect x="54" y="208" width="10" height="10" fill="#3a3a4a"/>
  
  <rect x="75" y="220" width="20" height="60" fill="#1a1a2a"/>
  <rect x="77" y="218" width="16" height="10" fill="#f5cda2"/>
  <rect x="79" y="208" width="12" height="10" fill="#2a2a3a"/>
  
  <rect x="105" y="220" width="15" height="60" fill="#252535"/>
  <rect x="107" y="218" width="11" height="10" fill="#f5cda2"/>
  <rect x="108" y="208" width="9" height="10" fill="#3a3a4a"/>
  
  <rect x="130" y="220" width="18" height="60" fill="#1a1a2a"/>
  <rect x="132" y="218" width="14" height="10" fill="#f5cda2"/>
  <rect x="134" y="208" width="10" height="10" fill="#2a2a3a"/>
  
  <rect x="250" y="220" width="18" height="60" fill="#1a1a2a"/>
  <rect x="252" y="218" width="14" height="10" fill="#f5cda2"/>
  <rect x="254" y="208" width="10" height="10" fill="#2a2a3a"/>
  
  <rect x="275" y="220" width="20" height="60" fill="#252535"/>
  <rect x="277" y="218" width="16" height="10" fill="#f5cda2"/>
  <rect x="279" y="208" width="12" height="10" fill="#3a3a4a"/>
  
  <rect x="305" y="220" width="15" height="60" fill="#1a1a2a"/>
  <rect x="307" y="218" width="11" height="10" fill="#f5cda2"/>
  <rect x="308" y="208" width="9" height="10" fill="#2a2a3a"/>
  
  <rect x="330" y="220" width="20" height="60" fill="#252535"/>
  <rect x="332" y="218" width="16" height="10" fill="#f5cda2"/>
  <rect x="334" y="208" width="12" height="10" fill="#3a3a4a"/>
  
  <rect x="360" y="220" width="18" height="60" fill="#1a1a2a"/>
  <rect x="362" y="218" width="14" height="10" fill="#f5cda2"/>
  <rect x="364" y="208" width="10" height="10" fill="#2a2a3a"/>
  
  <rect x="200" y="10" width="8" height="30" fill="#fff" opacity="0.3"/>
  <rect x="200" y="5" width="8" height="10" fill="#fff" opacity="0.2"/>
  <polygon points="180,8 200,0 220,8" fill="#fff" opacity="0.1"/>
  
  <rect x="120" y="10" width="8" height="25" fill="#fff" opacity="0.2"/>
  <rect x="280" y="10" width="8" height="25" fill="#fff" opacity="0.2"/>
  
  <rect x="0" y="280" width="400" height="20" fill="#151520"/>
  <rect x="0" y="280" width="400" height="3" fill="#252535"/>
</svg>