<svg xmlns="http://www.w3.org/2000/svg" width="400" height="300" viewBox="0 0 400 300" shape-rendering="crispEdges">
  <rect width="400" height="300" fill="#1a1a2a"/>
  <rect x="0" y="0" width="400" height="200" fill="#1a1a2a"/>
  <rect x="0" y="200" width="400" height="100" fill="#2d2d3a"/>
  <rect x="0" y="200" width="400" height="10" fill="#3d3d4a"/>
  <polygon points="0,200 200,80 400,200" fill="#2d2d3a"/>
  <polygon points="0,200 200,80 400,200" fill="none" stroke="#5a5a6a" stroke-width="3"/>
  <rect x="150" y="110" width="100" height="60" fill="#f4d03f"/>
  <rect x="150" y="110" width="100" height="60" fill="none" stroke="#8b6914" stroke-width="3"/>
  <rect x="160" y="120" width="80" height="40" fill="#1a1a2a"/>
  <rect x="165" y="125" width="70" height="5" fill="#ff4d6d"/>
  <rect x="165" y="135" width="60" height="3" fill="#f4f4f4"/>
  <rect x="165" y="142" width="50" height="3" fill="#f4f4f4"/>
  <rect x="165" y="149" width="65" height="3" fill="#f4f4f4"/>
  <rect x="190" y="170" width="20" height="30" fill="#5a5a6a"/>
  <rect x="185" y="165" width="30" height="5" fill="#7a7a8a"/>
  <rect x="50" y="150" width="60" height="50" fill="#2d3a4a"/>
  <rect x="50" y="150" width="60" height="5" fill="#4a5a6a"/>
  <rect x="55" y="160" width="50" height="30" fill="#1a1a2a"/>
  <rect x="60" y="165" width="40" height="5" fill="#5d8aff"/>
  <rect x="60" y="175" width="35" height="3" fill="#f4f4f4"/>
  <rect x="290" y="150" width="60" height="50" fill="#2d3a4a"/>
  <rect x="290" y="150" width="60" height="5" fill="#4a5a6a"/>
  <rect x="295" y="160" width="50" height="30" fill="#1a1a2a"/>
  <rect x="300" y="165" width="40" height="5" fill="#4ade80"/>
  <rect x="300" y="175" width="35" height="3" fill="#f4f4f4"/>
  <rect x="200" y="50" width="8" height="30" fill="#f4d03f"/>
  <rect x="200" y="40" width="8" height="10" fill="#f4d03f" opacity="0.7"/>
  <rect x="200" y="30" width="8" height="10" fill="#f4d03f" opacity="0.4"/>
  <polygon points="180,28 200,8 220,28" fill="#f4d03f" opacity="0.8"/>
  <polygon points="140,68 200,28 260,68" fill="#f4d03f" opacity="0.4"/>
  <rect x="30" y="220" width="20" height="60" fill="#1a1a1a"/>
  <rect x="32" y="218" width="16" height="10" fill="#f5cda2"/>
  <rect x="60" y="220" width="18" height="60" fill="#2a2a2a"/>
  <rect x="62" y="218" width="14" height="10" fill="#f5cda2"/>
  <rect x="90" y="220" width="20" height="60" fill="#1a1a1a"/>
  <rect x="92" y="218" width="16" height="10" fill="#f5cda2"/>
  <rect x="120" y="220" width="15" height="60" fill="#2a2a2a"/>
  <rect x="122" y="218" width="11" height="10" fill="#f5cda2"/>
  <rect x="260" y="220" width="18" height="60" fill="#1a1a1a"/>
  <rect x="262" y="218" width="14" height="10" fill="#f5cda2"/>
  <rect x="290" y="220" width="20" height="60" fill="#2a2a2a"/>
  <rect x="292" y="218" width="16" height="10" fill="#f5cda2"/>
  <rect x="320" y="220" width="15" height="60" fill="#1a1a1a"/>
  <rect x="322" y="218" width="11" height="10" fill="#f5cda2"/>
  <rect x="350" y="220" width="20" height="60" fill="#2a2a2a"/>
  <rect x="352" y="218" width="16" height="10" fill="#f5cda2"/>
  <rect x="100" y="210" width="200" height="20" fill="#3d3d4a"/>
  <rect x="100" y="210" width="200" height="3" fill="#5a5a6a"/>
  <rect x="110" y="213" width="30" height="14" fill="#e67e22"/>
  <rect x="150" y="213" width="30" height="14" fill="#5d8aff"/>
  <rect x="190" y="213" width="30" height="14" fill="#4ade80"/>
  <rect x="230" y="213" width="30" height="14" fill="#ff4d6d"/>
  <rect x="270" y="213" width="30" height="14" fill="#f4d03f"/>
</svg>
