<svg xmlns="http://www.w3.org/2000/svg" width="400" height="300" viewBox="0 0 400 300" shape-rendering="crispEdges">
  <rect width="400" height="300" fill="#0f1626"/>
  <rect x="0" y="0" width="400" height="200" fill="#1a2332"/>
  <rect x="0" y="200" width="400" height="100" fill="#1e2a3a"/>
  <rect x="0" y="200" width="400" height="10" fill="#2d3a4a"/>
  
  <rect x="0" y="0" width="400" height="10" fill="#0a0f1a"/>
  
  <rect x="280" y="20" width="100" height="150" fill="#0a0f1a"/>
  <rect x="280" y="20" width="100" height="8" fill="#1a2530"/>
  <rect x="285" y="30" width="90" height="130" fill="#1a2530"/>
  
  <rect x="310" y="40" width="40" height="8" fill="#f4d03f"/>
  <rect x="290" y="55" width="80" height="5" fill="#4ade80"/>
  <rect x="290" y="68" width="70" height="5" fill="#4ade80"/>
  <rect x="290" y="81" width="75" height="5" fill="#4ade80"/>
  <rect x="290" y="94" width="65" height="5" fill="#4ade80"/>
  
  <rect x="290" y="110" width="80" height="8" fill="#ff4d6d"/>
  <rect x="295" y="125" width="70" height="5" fill="#f4f4f4"/>
  <rect x="290" y="138" width="60" height="5" fill="#f4f4f4"/>
  <rect x="295" y="150" width="75" height="5" fill="#f4f4f4"/>
  
  <rect x="20" y="20" width="240" height="15" fill="#c0392b"/>
  <rect x="20" y="20" width="240" height="5" fill="#e74c3c"/>
  
  <rect x="30" y="24" width="10" height="7" fill="#ffd700"/>
  <rect x="240" y="24" width="10" height="7" fill="#ffd700"/>
  
  <rect x="60" y="22" width="160" height="12" fill="#fff"/>
  <rect x="70" y="24" width="10" height="8" fill="#c0392b"/>
  <rect x="85" y="24" width="10" height="8" fill="#c0392b"/>
  <rect x="100" y="24" width="8" height="8" fill="#c0392b"/>
  <rect x="120" y="24" width="10" height="8" fill="#c0392b"/>
  <rect x="140" y="24" width="10" height="8" fill="#c0392b"/>
  <rect x="155" y="24" width="8" height="8" fill="#c0392b"/>
  <rect x="175" y="24" width="10" height="8" fill="#c0392b"/>
  <rect x="195" y="24" width="10" height="8" fill="#c0392b"/>
  
  <rect x="20" y="50" width="120" height="100" fill="#1a2530"/>
  <rect x="20" y="50" width="120" height="8" fill="#2d3a4a"/>
  <rect x="30" y="65" width="100" height="75" fill="#0a0f1a"/>
  
  <rect x="35" y="72" width="50" height="6" fill="#4ade80"/>
  <rect x="90" y="72" width="35" height="6" fill="#5d8aff"/>
  
  <rect x="35" y="85" width="90" height="5" fill="#2d3a4a"/>
  <rect x="35" y="95" width="80" height="5" fill="#2d3a4a"/>
  <rect x="35" y="105" width="85" height="5" fill="#2d3a4a"/>
  <rect x="35" y="115" width="70" height="5" fill="#2d3a4a"/>
  <rect x="35" y="125" width="75" height="5" fill="#2d3a4a"/>
  
  <rect x="75" y="140" width="10" height="15" fill="#2d2d2d"/>
  <rect x="70" y="135" width="20" height="5" fill="#3d3d3d"/>
  
  <rect x="150" y="50" width="110" height="100" fill="#1a2530"/>
  <rect x="150" y="50" width="110" height="8" fill="#2d3a4a"/>
  <rect x="160" y="65" width="90" height="75" fill="#0a0f1a"/>
  
  <rect x="165" y="72" width="40" height="6" fill="#ff6b6b"/>
  <rect x="210" y="72" width="35" height="6" fill="#f4d03f"/>
  
  <rect x="165" y="85" width="80" height="5" fill="#2d3a4a"/>
  <rect x="165" y="95" width="70" height="5" fill="#2d3a4a"/>
  <rect x="165" y="105" width="75" height="5" fill="#2d3a4a"/>
  <rect x="165" y="115" width="60" height="5" fill="#2d3a4a"/>
  <rect x="165" y="125" width="85" height="5" fill="#2d3a4a"/>
  
  <rect x="200" y="140" width="10" height="15" fill="#2d2d2d"/>
  <rect x="195" y="135" width="20" height="5" fill="#3d3d3d"/>
  
  <rect x="30" y="220" width="40" height="60" fill="#2d3a4a"/>
  <rect x="32" y="222" width="36" height="12" fill="#f4d03f"/>
  <rect x="35" y="225" width="30" height="6" fill="#e67e22"/>
  
  <rect x="80" y="225" width="35" height="55" fill="#c0392b"/>
  <rect x="82" y="227" width="31" height="8" fill="#e74c3c"/>
  <rect x="88" y="238" width="19" height="5" fill="#fff"/>
  
  <rect x="130" y="220" width="30" height="60" fill="#2d3a4a"/>
  <rect x="132" y="222" width="26" height="10" fill="#4ade80"/>
  <rect x="135" y="225" width="20" height="4" fill="#fff"/>
  
  <rect x="300" y="220" width="80" height="60" fill="#1a2530"/>
  <rect x="300" y="220" width="80" height="8" fill="#2d3a4a"/>
  <rect x="310" y="235" width="60" height="35" fill="#0a0f1a"/>
  
  <rect x="315" y="242" width="50" height="5" fill="#ff4d6d"/>
  <rect x="315" y="252" width="45" height="4" fill="#f4f4f4"/>
  <rect x="315" y="262" width="40" height="4" fill="#f4f4f4"/>
  
  <rect x="340" y="280" height="10" width="15" fill="#2d2d2d"/>
  <rect x="335" y="275" width="25" height="5" fill="#3d3d3d"/>
  
  <rect x="200" y="210" width="60" height="70" fill="#2d3a4a"/>
  <rect x="200" y="210" width="60" height="8" fill="#3d4a5a"/>
  <rect x="210" y="225" width="40" height="45" fill="#1a2530"/>
  
  <rect x="215" y="232" width="30" height="5" fill="#4ade80"/>
  <rect x="215" y="242" width="25" height="4" fill="#5d8aff"/>
  <rect x="215" y="252" width="20" height="4" fill="#f4f4f4"/>
  <rect x="215" y="262" width="28" height="4" fill="#f4d03f"/>
  
  <rect x="170" y="215" width="20" height="65" fill="#1a2530"/>
  <rect x="172" y="212" width="16" height="8" fill="#ffd93d"/>
  
  <rect x="270" y="215" width="20" height="65" fill="#1a2530"/>
  <rect x="272" y="212" width="16" height="8" fill="#ff6b6b"/>
  
  <rect x="50" y="180" width="15" height="10" fill="#ffd93d" opacity="0.6"/>
  <rect x="90" y="175" width="12" height="8" fill="#ff6b6b" opacity="0.5"/>
  <rect x="180" y="180" width="10" height="10" fill="#4ade80" opacity="0.4"/>
  <rect x="250" y="178" width="14" height="9" fill="#5d8aff" opacity="0.5"/>
  
  <rect x="300" y="180" width="80" height="5" fill="#ffd93d" opacity="0.3"/>
  <rect x="290" y="190" width="100" height="3" fill="#ff6b6b" opacity="0.2"/>
  
  <rect x="0" y="280" width="400" height="20" fill="#0a0f1a"/>
  <rect x="0" y="280" width="400" height="3" fill="#1a2530"/>
</svg>