<svg xmlns="http://www.w3.org/2000/svg" width="400" height="300" viewBox="0 0 400 300" shape-rendering="crispEdges">
  <rect width="400" height="300" fill="#3d4a3a"/>
  <rect x="0" y="0" width="400" height="180" fill="#5a6a5a"/>
  <rect x="0" y="180" width="400" height="120" fill="#6b5a4a"/>
  <rect x="0" y="180" width="400" height="10" fill="#8b7a6a"/>
  <rect x="20" y="30" width="50" height="150" fill="#8b6e5d"/>
  <rect x="20" y="30" width="50" height="10" fill="#a68b6d"/>
  <rect x="30" y="50" width="30" height="20" fill="#f5d030" opacity="0.8"/>
  <rect x="32" y="45" width="26" height="5" fill="#ffeb99"/>
  <rect x="25" y="75" width="40" height="30" fill="#4ade80"/>
  <rect x="28" y="78" width="34" height="24" fill="#2d3a2d"/>
  <rect x="32" y="82" width="10" height="5" fill="#4ade80"/>
  <rect x="32" y="90" width="8" height="3" fill="#f4f4f4"/>
  <rect x="150" y="10" width="100" height="160" fill="#6b5a4a"/>
  <rect x="150" y="10" width="100" height="10" fill="#8b7a6a"/>
  <rect x="160" y="30" width="80" height="50" fill="#1a1a2a"/>
  <rect x="165" y="35" width="70" height="5" fill="#ff4d6d"/>
  <rect x="165" y="45" width="60" height="5" fill="#5d8aff"/>
  <rect x="165" y="55" width="50" height="5" fill="#4ade80"/>
  <rect x="165" y="65" width="70" height="5" fill="#f4d03f"/>
  <rect x="160" y="90" width="80" height="70" fill="#8b6e5d"/>
  <rect x="170" y="100" width="60" height="50" fill="#f4f4f4"/>
  <rect x="175" y="105" width="50" height="3" fill="#3d3d3d"/>
  <rect x="175" y="112" width="40" height="3" fill="#5d5d5d"/>
  <rect x="175" y="119" width="45" height="3" fill="#3d3d3d"/>
  <rect x="175" y="126" width="35" height="3" fill="#5d5d5d"/>
  <rect x="175" y="133" width="50" height="3" fill="#3d3d3d"/>
  <rect x="300" y="40" width="80" height="140" fill="#5a6a5a"/>
  <rect x="300" y="40" width="80" height="10" fill="#7a8a7a"/>
  <rect x="310" y="60" width="60" height="60" fill="#2d3a2d"/>
  <rect x="315" y="65" width="50" height="50" fill="#4ade80" opacity="0.2"/>
  <rect x="320" y="70" width="40" height="5" fill="#4ade80"/>
  <rect x="320" y="80" width="35" height="3" fill="#f4f4f4"/>
  <rect x="320" y="88" width="30" height="3" fill="#f4f4f4"/>
  <rect x="310" y="130" width="60" height="40" fill="#8b6e5d"/>
  <rect x="315" y="135" width="50" height="30" fill="#f5d030"/>
  <rect x="320" y="140" width="40" height="5" fill="#e67e22"/>
  <rect x="320" y="150" width="35" height="3" fill="#fff"/>
  <rect x="50" y="200" width="300" height="10" fill="#8b6e5d"/>
  <rect x="80" y="210" width="40" height="30" fill="#5a4a3a"/>
  <rect x="85" y="215" width="30" height="15" fill="#ff4d6d"/>
  <rect x="140" y="210" width="40" height="30" fill="#5a4a3a"/>
  <rect x="145" y="215" width="30" height="15" fill="#4ade80"/>
  <rect x="200" y="210" width="40" height="30" fill="#5a4a3a"/>
  <rect x="205" y="215" width="30" height="15" fill="#5d8aff"/>
  <rect x="260" y="210" width="40" height="30" fill="#5a4a3a"/>
  <rect x="265" y="215" width="30" height="15" fill="#f4d03f"/>
  <rect x="320" y="250" width="30" height="30" fill="#5d8aff"/>
  <circle cx="325" cy="260" r="3" fill="#fff"/>
  <circle cx="345" cy="260" r="3" fill="#fff"/>
  <rect x="322" cy="255" width="26" height="5" fill="#f4f4f4"/>
  <rect x="325" y="253" width="20" height="2" fill="#ff4d6d"/>
  <rect x="10" y="260" width="30" height="20" fill="#8b6e5d"/>
  <rect x="13" y="255" width="24" height="5" fill="#a68b6d"/>
  <rect x="15" y="262" width="20" height="15" fill="#e67e22"/>
</svg>
