<svg xmlns="http://www.w3.org/2000/svg" width="400" height="300" viewBox="0 0 400 300" shape-rendering="crispEdges">
  <rect width="400" height="300" fill="#1a2530"/>
  <rect x="0" y="0" width="400" height="50" fill="#2a3a4a"/>
  <rect x="0" y="50" width="400" height="150" fill="#1a2530"/>
  <rect x="0" y="200" width="400" height="100" fill="#3d4a5a"/>
  <rect x="0" y="200" width="400" height="10" fill="#5a6a7a"/>
  <rect x="50" y="10" width="300" height="30" fill="#1a1a1a"/>
  <rect x="55" y="15" width="290" height="20" fill="#f4d03f"/>
  <rect x="60" y="18" width="30" height="14" fill="#1a1a1a"/>
  <rect x="65" y="22" width="20" height="6" fill="#4ade80"/>
  <rect x="95" y="18" width="30" height="14" fill="#1a1a1a"/>
  <rect x="100" y="22" width="25" height="6" fill="#ff4d6d"/>
  <rect x="130" y="18" width="30" height="14" fill="#1a1a1a"/>
  <rect x="135" y="22" width="20" height="6" fill="#4ade80"/>
  <rect x="165" y="18" width="30" height="14" fill="#1a1a1a"/>
  <rect x="170" y="22" width="25" height="6" fill="#4ade80"/>
  <rect x="200" y="18" width="30" height="14" fill="#1a1a1a"/>
  <rect x="205" y="22" width="20" height="6" fill="#ff4d6d"/>
  <rect x="235" y="18" width="30" height="14" fill="#1a1a1a"/>
  <rect x="240" y="22" width="25" height="6" fill="#4ade80"/>
  <rect x="270" y="18" width="30" height="14" fill="#1a1a1a"/>
  <rect x="275" y="22" width="20" height="6" fill="#4ade80"/>
  <rect x="305" y="18" width="30" height="14" fill="#1a1a1a"/>
  <rect x="310" y="22" width="25" height="6" fill="#ff4d6d"/>
  <rect x="180" y="60" width="40" height="40" fill="#f4d03f"/>
  <rect x="180" y="60" width="40" height="40" fill="none" stroke="#8b6914" stroke-width="3"/>
  <rect x="195" y="70" width="10" height="20" fill="#8b6914"/>
  <rect x="185" y="75" width="20" height="3" fill="#8b6914"/>
  <rect x="190" y="65" width="20" height="3" fill="#8b6914"/>
  <rect x="196" y="68" width="8" height="5" fill="#f4d03f"/>
  <rect x="180" y="100" width="40" height="5" fill="#8b6914"/>
  <rect x="195" y="105" width="10" height="15" fill="#8b6914"/>
  <rect x="20" y="70" width="80" height="110" fill="#2d3a4a"/>
  <rect x="20" y="70" width="80" height="10" fill="#3d4a5a"/>
  <rect x="30" y="90" width="60" height="5" fill="#4ade80"/>
  <rect x="30" y="100" width="60" height="5" fill="#4ade80"/>
  <rect x="30" y="110" width="60" height="5" fill="#ff4d6d"/>
  <rect x="30" y="120" width="60" height="5" fill="#4ade80"/>
  <rect x="30" y="130" width="60" height="5" fill="#ff4d6d"/>
  <rect x="30" y="140" width="60" height="5" fill="#4ade80"/>
  <rect x="30" y="150" width="60" height="5" fill="#4ade80"/>
  <rect x="300" y="70" width="80" height="110" fill="#2d3a4a"/>
  <rect x="300" y="70" width="80" height="10" fill="#3d4a5a"/>
  <rect x="310" y="90" width="60" height="5" fill="#ff4d6d"/>
  <rect x="310" y="100" width="60" height="5" fill="#4ade80"/>
  <rect x="310" y="110" width="60" height="5" fill="#4ade80"/>
  <rect x="310" y="120" width="60" height="5" fill="#ff4d6d"/>
  <rect x="310" y="130" width="60" height="5" fill="#4ade80"/>
  <rect x="310" y="140" width="60" height="5" fill="#4ade80"/>
  <rect x="310" y="150" width="60" height="5" fill="#ff4d6d"/>
  <rect x="120" y="160" width="160" height="40" fill="#5a6a7a"/>
  <rect x="120" y="160" width="160" height="5" fill="#7a8a9a"/>
  <rect x="130" y="170" width="20" height="20" fill="#1a1a1a"/>
  <rect x="160" y="170" width="20" height="20" fill="#1a1a1a"/>
  <rect x="190" y="170" width="20" height="20" fill="#1a1a1a"/>
  <rect x="220" y="170" width="20" height="20" fill="#1a1a1a"/>
  <rect x="250" y="170" width="20" height="20" fill="#1a1a1a"/>
  <rect x="10" y="220" width="30" height="60" fill="#2a2a3a"/>
  <rect x="12" y="218" width="26" height="10" fill="#f5cda2"/>
  <rect x="50" y="220" width="25" height="60" fill="#1a1a2a"/>
  <rect x="52" y="218" width="21" height="10" fill="#f5cda2"/>
  <rect x="320" y="220" width="28" height="60" fill="#2a2a3a"/>
  <rect x="322" y="218" width="24" height="10" fill="#f5cda2"/>
  <rect x="360" y="220" width="25" height="60" fill="#1a1a2a"/>
  <rect x="362" y="218" width="21" height="10" fill="#f5cda2"/>
  <rect x="100" y="130" width="20" height="30" fill="#f4d03f" opacity="0.5"/>
  <rect x="280" y="130" width="20" height="30" fill="#f4d03f" opacity="0.5"/>
</svg>
